<svg xmlns="http://www.w3.org/2000/svg" xmlns:xlink="http://www.w3.org/1999/xlink" width="500" zoomAndPan="magnify" viewBox="0 0 375 374.999991" height="500" preserveAspectRatio="xMidYMid meet" version="1.0"><defs><clipPath id="f4cea2f4ac"><path d="M 29 47.585938 L 346 47.585938 L 346 327.414062 L 29 327.414062 Z M 29 47.585938 " clip-rule="nonzero"/></clipPath><clipPath id="957dfceefb"><path d="M 340.503906 204.355469 L 278.710938 310.558594 C 272.640625 320.996094 261.476562 327.414062 249.40625 327.414062 L 125.59375 327.414062 C 113.523438 327.414062 102.359375 320.996094 96.289062 310.558594 L 34.496094 204.355469 C 28.433594 193.9375 28.433594 181.0625 34.496094 170.644531 L 96.289062 64.441406 C 102.359375 54.003906 113.523438 47.585938 125.59375 47.585938 L 249.40625 47.585938 C 261.476562 47.585938 272.640625 54.003906 278.710938 64.441406 L 340.503906 170.644531 C 346.566406 181.0625 346.566406 193.9375 340.503906 204.355469 " clip-rule="nonzero"/></clipPath><clipPath id="12c2d17e5c"><path d="M 101.511719 92.617188 L 273.261719 92.617188 L 273.261719 282.367188 L 101.511719 282.367188 Z M 101.511719 92.617188 " clip-rule="nonzero"/></clipPath></defs><g clip-path="url(#f4cea2f4ac)"><g clip-path="url(#957dfceefb)"><path fill="#6d26ff" d="M 24.691406 47.585938 L 350.308594 47.585938 L 350.308594 327.414062 L 24.691406 327.414062 Z M 24.691406 47.585938 " fill-opacity="1" fill-rule="nonzero"/></g></g><g clip-path="url(#12c2d17e5c)"><path fill="#ffffff" d="M 187.390625 282.371094 C 139.992188 282.371094 101.523438 243.855469 101.523438 196.398438 C 101.523438 172.761719 111.105469 151.390625 126.542969 135.851562 L 126.617188 135.925781 C 129.738281 131.609375 134.777344 128.78125 140.503906 128.78125 C 149.980469 128.78125 157.683594 136.476562 157.683594 145.96875 C 157.683594 151.789062 154.777344 156.917969 150.351562 160.027344 L 150.414062 160.089844 C 141.136719 169.445312 135.328125 182.214844 135.328125 196.398438 C 135.328125 225.007812 158.632812 248.234375 187.34375 248.234375 C 216.054688 248.234375 239.34375 225.007812 239.34375 196.398438 C 239.34375 183.453125 234.484375 171.714844 226.585938 162.648438 C 221.890625 159.578125 218.761719 154.292969 218.761719 148.261719 C 218.761719 138.769531 226.460938 131.058594 235.941406 131.058594 C 240.574219 131.058594 244.761719 132.933594 247.851562 135.925781 L 248.09375 135.683594 C 263.621094 151.230469 273.246094 172.683594 273.246094 196.398438 C 273.246094 243.851562 234.789062 282.375 187.390625 282.375 Z M 187.378906 196.992188 C 177.867188 196.992188 170.210938 189.1875 170.210938 179.488281 L 170.210938 110.132812 C 170.210938 100.429688 177.867188 92.628906 187.378906 92.628906 C 196.894531 92.628906 204.5625 100.429688 204.5625 110.132812 L 204.5625 179.488281 C 204.5625 189.1875 196.894531 196.992188 187.378906 196.992188 Z M 187.378906 196.992188 " fill-opacity="1" fill-rule="evenodd"/></g></svg>